<?xml version="1.0" encoding="UTF-8"?>
<svg width="1200pt" height="1200pt" version="1.1" viewBox="0 0 1200 1200" xmlns="http://www.w3.org/2000/svg">
 <path d="m600 41.281c-148.18 0-290.29 58.863-395.07 163.64s-163.64 246.89-163.64 395.07 58.863 290.29 163.64 395.07 246.89 163.64 395.07 163.64 290.29-58.863 395.07-163.64 163.64-246.89 163.64-395.07c0.023438-98.082-25.781-194.44-74.816-279.39-49.035-84.945-119.57-155.48-204.52-204.52-84.945-49.035-181.3-74.84-279.39-74.816zm186.12 634.56c-9 8.9766-21.191 14.02-33.902 14.02s-24.898-5.043-33.898-14.02l-70.32-70.32v301.92c0 12.73-5.0586 24.938-14.059 33.941-9.0039 9-21.211 14.059-33.941 14.059s-24.938-5.0586-33.941-14.059c-9-9.0039-14.059-21.211-14.059-33.941v-301.92l-70.32 70.32c-9 8.9766-21.188 14.02-33.898 14.02s-24.902-5.043-33.902-14.02c-9.0117-9.0039-14.078-21.219-14.078-33.961 0-12.738 5.0664-24.957 14.078-33.957l152.04-151.92c9.0117-9.0859 21.281-14.199 34.078-14.199s25.066 5.1133 34.078 14.199l152.04 151.92c9.0117 9 14.078 21.219 14.078 33.957 0 12.742-5.0664 24.957-14.078 33.961zm29.039-325.32c0 12.73-5.0586 24.941-14.059 33.941-9.0039 9-21.211 14.059-33.941 14.059h-334.32c-12.73 0-24.938-5.0586-33.941-14.059-9-9-14.059-21.211-14.059-33.941s5.0586-24.938 14.059-33.941c9.0039-9 21.211-14.059 33.941-14.059h334.32c12.73 0 24.938 5.0586 33.941 14.059 9 9.0039 14.059 21.211 14.059 33.941z"/>
</svg>
